<svg version="1.1" id="Layer_1" xmlns="http://www.w3.org/2000/svg" xmlns:xlink="http://www.w3.org/1999/xlink" x="0px" y="0px"
	 width="100%" viewBox="0 0 245 171" enable-background="new 0 0 245 171" xml:space="preserve">
<path fill="#DE96BE" opacity="1.000000" stroke="none" 
	d="
M154.825958,62.702972 
	C156.742554,63.993725 157.813904,65.386978 158.259033,67.575500 
	C157.145264,69.327141 155.465469,69.491463 153.826950,69.499916 
	C144.451828,69.548309 135.075607,69.799904 125.240158,69.285248 
	C122.174454,66.627106 119.822510,66.977089 117.394791,69.910950 
	C105.677124,70.700768 94.250542,71.334961 82.502319,69.324966 
	C82.434555,66.668396 84.069359,65.089432 85.577843,63.105789 
	C94.089821,61.707779 102.376038,62.458511 110.631828,62.480038 
	C125.209755,62.518044 139.789322,62.104496 154.825958,62.702972 
z"/>
<path fill="#E591BC" opacity="1.000000" stroke="none" 
	d="
M155.173767,62.548717 
	C153.793213,63.660694 152.229584,64.023994 150.503632,64.021034 
	C130.340668,63.986530 110.177612,64.010338 90.014694,63.967552 
	C88.890770,63.965172 87.767807,63.514458 86.247620,63.097073 
	C86.341049,60.854786 87.999359,59.671455 89.665649,58.128365 
	C94.473969,56.516811 99.074821,57.932747 103.631035,57.584080 
	C106.736412,57.346439 109.875816,57.607071 113.393372,57.252182 
	C117.792862,59.300964 121.819305,61.050426 126.666031,58.436531 
	C135.109024,58.811867 143.164810,58.113297 151.630295,58.869896 
	C153.473343,59.642769 154.394424,60.828732 155.173767,62.548717 
z"/>
<path fill="#F485B9" opacity="1.000000" stroke="none" 
	d="
M99.099281,51.346535 
	C112.166908,42.980137 125.645859,42.585835 139.670532,49.918060 
	C141.007355,52.905071 138.686813,52.979107 137.107498,53.241356 
	C134.074951,53.744919 130.986786,53.532631 127.495689,53.320023 
	C123.039268,51.668446 119.021858,50.535229 114.750687,53.801514 
	C109.211235,54.065285 104.045662,54.291798 99.099281,51.346535 
z"/>
<path fill="#D59FC1" opacity="1.000000" stroke="none" 
	d="
M81.959320,69.282883 
	C91.761749,68.996742 101.370567,68.987320 110.979309,69.010292 
	C112.781517,69.014595 114.642509,68.705132 116.711922,69.888916 
	C116.128654,71.775055 115.170959,73.499626 113.139816,74.727554 
	C108.769394,77.525391 104.213333,76.287621 99.342369,76.176010 
	C95.873123,75.596313 93.263306,72.398994 89.499680,74.868790 
	C86.245934,76.906807 83.374474,76.755554 80.304581,74.385132 
	C80.069664,72.317993 81.031723,70.988815 81.959320,69.282883 
z"/>
<path fill="#EE8ABB" opacity="1.000000" stroke="none" 
	d="
M98.574234,51.008633 
	C103.881897,52.507576 109.085182,52.330944 114.616524,53.002773 
	C116.245934,54.250645 116.253021,55.689594 115.482971,57.581207 
	C107.092102,59.758926 98.949005,59.449486 90.380707,58.041809 
	C92.051949,54.879642 95.094284,52.910889 98.574234,51.008633 
z"/>
<path fill="#D89CC0" opacity="1.000000" stroke="none" 
	d="
M124.880295,69.430161 
	C127.346138,67.482124 130.226135,68.036278 133.002792,68.016663 
	C141.111221,67.959381 149.220200,67.977798 157.830200,67.937683 
	C159.473434,68.760658 160.093521,69.868301 159.959290,71.659668 
	C157.758835,73.869957 155.169586,73.409180 152.233994,73.310760 
	C150.753220,73.489418 149.692993,73.704353 148.303101,73.927223 
	C141.554276,73.105759 135.097977,73.589615 128.268860,73.232574 
	C126.911644,71.961342 125.946602,70.846916 124.880295,69.430161 
z"/>
<path fill="#8AE9D8" opacity="1.000000" stroke="none" 
	d="
M104.777893,111.685951 
	C107.835609,113.063530 108.551414,115.743195 109.345802,118.213493 
	C110.530075,121.896194 112.782089,124.995728 115.131676,129.486908 
	C107.044762,126.147552 101.973312,121.115921 97.977753,114.377090 
	C99.338799,111.270416 101.951355,111.729286 104.777893,111.685951 
z"/>
<path fill="#BDB7C8" opacity="1.000000" stroke="none" 
	d="
M113.448303,89.221390 
	C110.814659,86.667351 112.441559,84.580009 113.715202,82.225815 
	C118.413216,80.629448 122.919922,81.918274 127.775558,81.754044 
	C129.929886,84.388870 131.270676,86.893387 128.316528,89.817230 
	C123.245316,90.748428 118.499634,91.077209 113.448303,89.221390 
z"/>
<path fill="#CAACC5" opacity="1.000000" stroke="none" 
	d="
M128.119339,81.546875 
	C123.742332,83.691536 119.282654,83.382454 114.396965,82.047859 
	C114.165108,81.368744 114.217339,80.663712 114.546631,80.129417 
	C116.415260,77.097420 117.822807,72.194847 121.337265,72.396309 
	C125.338181,72.625641 126.766998,77.446320 128.119339,81.546875 
z"/>
<path fill="#EF88BA" opacity="1.000000" stroke="none" 
	d="
M125.674271,52.509315 
	C130.441162,51.340496 135.317627,53.332104 139.898773,50.458466 
	C143.973450,50.093391 145.570602,53.991520 148.886108,55.689453 
	C148.236145,57.942516 146.437393,58.350342 144.624786,58.372246 
	C139.243164,58.437275 133.851044,58.838802 128.041901,57.952908 
	C125.738716,56.680523 125.574646,54.844711 125.674271,52.509315 
z"/>
<path fill="#B6BECA" opacity="1.000000" stroke="none" 
	d="
M90.668304,93.324158 
	C90.260658,91.280083 90.200645,89.563805 90.213074,87.422829 
	C94.426743,84.331665 99.024010,85.884460 103.869720,85.593933 
	C107.922394,86.781792 107.901695,89.345680 106.803467,92.644333 
	C101.586647,95.613014 96.305923,94.743668 90.668304,93.324158 
z"/>
<path fill="#C1B3C7" opacity="1.000000" stroke="none" 
	d="
M104.204277,85.301834 
	C100.187355,88.492744 95.520500,86.305939 90.721542,86.998360 
	C90.504707,83.771324 90.032181,79.254471 92.673660,78.028740 
	C95.712219,76.618774 98.662262,80.331215 101.453865,82.159431 
	C102.501793,82.845726 103.220619,84.034538 104.204277,85.301834 
z"/>
<path fill="#D2A5C3" opacity="1.000000" stroke="none" 
	d="
M127.965363,73.388733 
	C134.436478,71.464066 140.979263,71.055420 147.728638,73.644012 
	C144.916336,75.624954 141.859238,77.314743 138.460449,79.095718 
	C135.924866,78.800774 133.703903,78.653831 131.233398,78.218491 
	C130.002014,76.566994 129.028030,75.134338 127.965363,73.388733 
z"/>
<path fill="#89EEDA" opacity="1.000000" stroke="none" 
	d="
M161.805695,118.604446 
	C155.984009,125.344894 148.671478,128.965820 139.998886,129.911285 
	C145.933517,126.306160 151.431671,122.237656 156.499329,117.076370 
	C158.839798,115.754349 160.324112,116.728630 161.805695,118.604446 
z"/>
<path fill="#ACC8CD" opacity="1.000000" stroke="none" 
	d="
M90.249344,93.359604 
	C95.494560,92.997322 100.668442,92.998276 106.282135,92.997940 
	C106.641907,94.478264 106.561882,95.959885 106.249016,97.724449 
	C103.537788,99.843330 100.495155,99.417503 97.329239,100.098785 
	C93.795067,98.926117 90.198792,98.212509 90.249344,93.359604 
z"/>
<path fill="#91E4D7" opacity="1.000000" stroke="none" 
	d="
M157.053314,108.689117 
	C153.978302,115.988068 148.890533,120.954834 141.790833,123.831009 
	C145.171829,118.749268 148.805542,113.920174 151.508789,108.121674 
	C153.538254,106.785080 155.252304,106.701874 157.053314,108.689117 
z"/>
<path fill="#B2C2CC" opacity="1.000000" stroke="none" 
	d="
M113.183762,89.300003 
	C117.786461,89.348480 122.574478,88.272141 127.624352,89.836006 
	C126.855286,92.197495 125.703743,94.392815 124.301910,96.808563 
	C122.267113,97.810745 120.410622,97.330849 118.273170,97.179932 
	C116.409027,94.552979 114.853798,92.087112 113.183762,89.300003 
z"/>
<path fill="#BAB9C9" opacity="1.000000" stroke="none" 
	d="
M151.218704,84.702248 
	C151.635406,86.393211 151.739594,87.778908 151.772217,89.579140 
	C146.470200,92.670853 141.108826,91.816162 135.339447,90.302505 
	C133.347229,86.522285 137.211380,86.174736 138.581650,84.073494 
	C142.916245,83.281380 146.937347,83.170822 151.218704,84.702248 
z"/>
<path fill="#89EEDA" opacity="1.000000" stroke="none" 
	d="
M139.976868,118.724274 
	C137.239044,124.455765 132.176849,127.136154 126.043571,129.075500 
	C128.140900,125.135559 130.238235,121.195625 132.601379,117.034256 
	C135.355362,116.495010 137.716385,116.733810 139.976868,118.724274 
z"/>
<path fill="#ACC8CD" opacity="1.000000" stroke="none" 
	d="
M136.233246,99.289169 
	C134.757019,97.762955 135.203613,96.218491 135.205109,94.380798 
	C140.363190,91.401749 145.613464,92.257553 151.219849,93.684906 
	C151.996399,98.264732 148.299713,98.527451 145.463745,100.015045 
	C142.225418,100.672279 139.364395,100.822632 136.233246,99.289169 
z"/>
<path fill="#97DBD3" opacity="1.000000" stroke="none" 
	d="
M105.078773,111.401230 
	C103.539429,114.127991 100.543808,112.155968 98.273926,113.879753 
	C94.917931,110.830986 93.467300,106.917526 91.975136,101.490738 
	C97.336891,104.691711 101.855278,106.868034 105.078773,111.401230 
z"/>
<path fill="#89EEDA" opacity="1.000000" stroke="none" 
	d="
M84.696533,117.760544 
	C90.513039,121.289398 94.491768,126.572067 100.330872,129.494629 
	C92.900246,128.769272 86.896858,125.106133 81.111053,120.353630 
	C80.936050,117.657227 82.596382,117.539078 84.696533,117.760544 
z"/>
<path fill="#B8C2CD" opacity="1.000000" stroke="none" 
	d="
M86.296341,86.664276 
	C86.712074,87.466125 86.985504,88.036903 86.821121,88.419617 
	C85.823311,90.742607 89.404739,95.038689 84.763573,95.468674 
	C78.691605,96.031204 77.073463,93.767113 77.704330,87.264938 
	C80.475166,85.150734 83.176514,85.279266 86.296341,86.664276 
z"/>
<path fill="#E98DBB" opacity="1.000000" stroke="none" 
	d="
M126.599777,57.140549 
	C133.997192,56.599327 141.193939,57.828842 148.692139,56.131901 
	C149.988113,56.757347 150.892532,57.552250 151.929779,58.621395 
	C149.821869,61.011784 147.052795,59.954220 144.568451,59.924751 
	C138.544922,59.853310 132.490570,60.635864 126.216995,59.160789 
	C125.692490,58.217480 125.940224,57.727608 126.599777,57.140549 
z"/>
<path fill="#A4D3D2" opacity="1.000000" stroke="none" 
	d="
M157.531158,108.895279 
	C155.799866,108.322342 154.257309,107.844154 152.158310,107.918022 
	C152.560089,103.679665 152.997543,99.272064 158.525589,98.344086 
	C161.032944,97.923187 162.538834,98.002792 161.405609,101.194519 
	C160.468536,103.833733 159.570587,106.465088 157.531158,108.895279 
z"/>
<path fill="#8FE6D7" opacity="1.000000" stroke="none" 
	d="
M130.216568,110.709122 
	C129.859238,116.222176 127.463211,120.589264 123.636177,125.395012 
	C122.598946,120.239838 122.777122,115.935493 123.599350,111.274200 
	C125.749893,109.560097 127.767273,109.406929 130.216568,110.709122 
z"/>
<path fill="#8FE6D7" opacity="1.000000" stroke="none" 
	d="
M118.399765,112.699974 
	C118.803429,116.285164 118.910255,119.561630 118.924301,122.838501 
	C118.928307,123.772331 119.158623,125.054420 118.046738,125.438400 
	C116.625023,125.929382 116.076294,124.525383 115.525909,123.631935 
	C113.626541,120.548622 112.129555,117.270432 111.256203,113.371124 
	C113.381561,111.189987 115.694443,111.457039 118.399765,112.699974 
z"/>
<path fill="#CAACC5" opacity="1.000000" stroke="none" 
	d="
M99.099174,76.339310 
	C103.145813,73.993248 107.669212,75.428101 112.499283,74.999084 
	C109.926750,84.029106 109.926498,84.029472 102.507942,78.865364 
	C101.434036,78.117805 100.363945,77.364769 99.099174,76.339310 
z"/>
<path fill="#8FE6D7" opacity="1.000000" stroke="none" 
	d="
M91.607407,111.755478 
	C94.835754,115.919174 97.637001,119.851601 100.438240,123.784035 
	C94.213867,122.432472 90.512741,118.292221 86.911026,113.589897 
	C87.271782,110.190231 89.262077,110.947281 91.607407,111.755478 
z"/>
<path fill="#8FE6D7" opacity="1.000000" stroke="none" 
	d="
M140.483002,118.903198 
	C137.919037,118.516647 135.638885,117.970840 133.112961,117.118935 
	C132.903687,114.201828 134.828354,112.848488 136.820099,111.189049 
	C139.696838,109.226891 142.162582,109.871819 144.878174,111.703308 
	C144.473282,114.785934 142.739273,116.843201 140.483002,118.903198 
z"/>
<path fill="#C1B3C7" opacity="1.000000" stroke="none" 
	d="
M162.527084,79.706177 
	C163.187042,82.392166 163.485519,84.783699 163.715820,87.565384 
	C161.219681,89.994606 158.593857,89.593918 155.582153,88.273628 
	C154.906433,85.571442 154.567062,83.177963 154.235031,80.390892 
	C156.749985,77.996147 159.431534,78.348625 162.527084,79.706177 
z"/>
<path fill="#B2C2CC" opacity="1.000000" stroke="none" 
	d="
M151.688538,93.620911 
	C146.423965,94.007492 141.282166,94.004341 135.698090,94.002899 
	C135.151764,92.942894 135.047684,91.881172 134.944504,90.419434 
	C140.238617,90.012367 145.531845,90.005318 151.262863,89.995972 
	C151.737534,91.072845 151.774414,92.152023 151.688538,93.620911 
z"/>
<path fill="#9AD9D3" opacity="1.000000" stroke="none" 
	d="
M172.615173,102.702911 
	C172.535187,105.865776 170.875153,108.159630 169.206619,110.776428 
	C166.614624,112.534142 164.445221,111.661575 162.000122,110.233780 
	C162.651810,107.436096 163.592941,104.972206 164.778778,102.262627 
	C167.510986,101.100449 169.925125,101.531303 172.615173,102.702911 
z"/>
<path fill="#C1B3C7" opacity="1.000000" stroke="none" 
	d="
M151.605637,84.642761 
	C147.579269,84.647453 143.535858,85.773468 139.264084,84.101425 
	C139.919495,82.881462 140.850708,81.680916 142.028824,80.817116 
	C148.768784,75.875343 149.735596,76.243927 151.605637,84.642761 
z"/>
<path fill="#A4D3D2" opacity="1.000000" stroke="none" 
	d="
M110.375504,106.234314 
	C108.880798,100.879707 108.931091,100.027176 110.898254,93.070435 
	C114.370277,96.211861 115.435440,100.342041 116.868004,104.643242 
	C115.087952,106.596092 112.963211,106.795250 110.375504,106.234314 
z"/>
<path fill="#91E4D7" opacity="1.000000" stroke="none" 
	d="
M161.453079,110.088974 
	C163.853882,110.258972 165.997070,110.617966 168.537430,110.978424 
	C167.637787,114.239273 165.035248,116.422966 162.254517,118.846542 
	C160.461761,118.322296 158.977539,117.665520 157.136215,116.956161 
	C158.251236,114.695038 159.723343,112.486496 161.453079,110.088974 
z"/>
<path fill="#BBC5D0" opacity="1.000000" stroke="none" 
	d="
M155.171936,88.404610 
	C157.773834,87.971687 160.301849,87.978447 163.238754,87.970367 
	C163.685669,90.581650 165.245621,93.729004 161.119370,94.874565 
	C154.967453,96.582497 154.930359,96.564934 155.171936,88.404610 
z"/>
<path fill="#9AD9D3" opacity="1.000000" stroke="none" 
	d="
M130.688766,110.625755 
	C128.601700,111.010536 126.657898,110.994278 124.278755,110.958267 
	C123.741066,107.480347 124.656868,104.283455 126.583885,101.023987 
	C128.382706,100.628960 129.898514,100.617096 131.543381,101.767105 
	C131.493835,104.756821 131.162933,107.490768 130.688766,110.625755 
z"/>
<path fill="#97DBD3" opacity="1.000000" stroke="none" 
	d="
M145.436523,111.850449 
	C142.753876,111.700592 140.343399,111.357063 137.529144,111.027557 
	C140.050064,106.771759 144.636215,104.795044 149.390930,101.887962 
	C149.285538,106.025658 147.511078,108.846169 145.436523,111.850449 
z"/>
<path fill="#9AD9D3" opacity="1.000000" stroke="none" 
	d="
M76.391304,102.724670 
	C77.833817,105.429047 78.929527,107.830078 80.104950,110.584808 
	C78.235313,112.786667 76.102371,112.529892 73.490875,111.230995 
	C71.305672,109.303375 70.069443,107.341751 69.732056,104.498840 
	C71.220207,101.433121 73.511520,101.477608 76.391304,102.724670 
z"/>
<path fill="#97DBD3" opacity="1.000000" stroke="none" 
	d="
M110.007950,106.404083 
	C112.051956,105.623421 113.969032,104.649727 116.495193,105.007416 
	C118.000420,107.296249 118.836647,109.656677 118.792389,112.624382 
	C116.514725,113.006302 114.297623,113.004059 111.668930,113.004745 
	C110.536385,111.001488 109.694862,109.020149 110.007950,106.404083 
z"/>
<path fill="#91E4D7" opacity="1.000000" stroke="none" 
	d="
M73.181946,111.295563 
	C75.147575,110.975906 77.214218,110.976387 79.732773,110.957687 
	C82.338791,112.638657 83.534798,115.061180 85.013428,117.639206 
	C83.626999,118.027565 82.464050,118.703568 81.157654,119.774010 
	C77.967644,117.636765 75.178627,115.033104 73.181946,111.295563 
z"/>
<path fill="#CAACC5" opacity="1.000000" stroke="none" 
	d="
M79.782501,74.265060 
	C82.725510,74.886612 85.485725,75.183533 88.746490,75.057365 
	C89.020134,77.007263 88.676819,78.879494 87.347275,80.787201 
	C84.397331,82.127777 81.609390,81.743378 78.530128,81.240707 
	C78.006210,78.705261 79.031555,76.666046 79.782501,74.265060 
z"/>
<path fill="#A4D3D2" opacity="1.000000" stroke="none" 
	d="
M82.469559,106.124794 
	C80.245827,103.931511 79.088974,101.445969 79.532600,98.828705 
	C79.775558,97.395294 81.828598,97.975647 83.035355,98.275467 
	C86.164101,99.052773 89.242126,100.011940 88.967545,104.616447 
	C87.143646,106.534569 85.001961,106.480171 82.469559,106.124794 
z"/>
<path fill="#C1B3C7" opacity="1.000000" stroke="none" 
	d="
M78.143219,81.415909 
	C80.929474,80.804039 83.616943,79.183372 86.717232,80.990021 
	C87.019730,82.744560 86.933121,84.447128 86.743752,86.565979 
	C84.036385,86.986557 81.431778,86.990852 78.377441,86.986435 
	C77.969963,85.264107 78.012230,83.550507 78.143219,81.415909 
z"/>
<path fill="#A8D2D2" opacity="1.000000" stroke="none" 
	d="
M173.171143,102.757874 
	C170.523514,102.804184 168.047852,103.517242 165.386047,102.172096 
	C165.583145,97.574928 169.412842,95.384766 173.190247,97.449417 
	C175.898331,98.929596 173.760452,100.807579 173.171143,102.757874 
z"/>
<path fill="#97DBD3" opacity="1.000000" stroke="none" 
	d="
M82.131332,106.299728 
	C83.983055,104.750275 86.089310,105.006134 88.552399,105.002663 
	C89.905159,107.106224 90.859955,109.207413 91.924637,111.647667 
	C90.454346,112.151535 88.776375,111.593094 87.064957,112.947556 
	C84.327751,111.721169 83.520714,108.988960 82.131332,106.299728 
z"/>
<path fill="#A8D2D2" opacity="1.000000" stroke="none" 
	d="
M76.755333,102.652573 
	C74.615097,103.090874 72.422897,102.599525 70.055359,103.974548 
	C68.008842,102.555656 67.075432,100.382126 67.790276,98.412430 
	C68.512856,96.421417 70.934624,97.189537 72.670273,97.121399 
	C76.310059,96.978516 75.860558,100.190750 76.755333,102.652573 
z"/>
<path fill="#A4D3D2" opacity="1.000000" stroke="none" 
	d="
M97.125198,100.392868 
	C99.131935,97.292320 102.275780,98.144318 105.590164,98.005493 
	C106.225723,100.793106 105.782944,103.601257 107.187950,107.577477 
	C103.134132,104.739006 100.224571,102.701744 97.125198,100.392868 
z"/>
<path fill="#A4D3D2" opacity="1.000000" stroke="none" 
	d="
M135.823395,99.429016 
	C138.703720,99.210030 141.614044,98.393021 144.733337,99.898521 
	C142.129944,102.329628 139.144913,104.589005 135.818130,107.107048 
	C134.511063,104.400993 135.106415,102.107666 135.823395,99.429016 
z"/>
<path fill="#A8D2D2" opacity="1.000000" stroke="none" 
	d="
M131.887726,101.577682 
	C130.318665,101.852074 128.713669,102.384514 127.084412,101.079407 
	C127.211807,97.554512 129.218872,95.181274 131.095428,91.274155 
	C132.362152,95.382309 131.881683,98.288666 131.887726,101.577682 
z"/>
<path fill="#CAACC5" opacity="1.000000" stroke="none" 
	d="
M162.910110,79.649658 
	C160.289062,80.000511 157.689545,80.000397 154.666214,79.998795 
	C153.815918,78.911896 153.389450,77.826492 152.903046,76.394730 
	C155.449448,73.918480 158.251938,74.269485 161.498688,75.695877 
	C162.231735,77.097855 162.581696,78.198273 162.910110,79.649658 
z"/>
<path fill="#D2A5C3" opacity="1.000000" stroke="none" 
	d="
M161.878693,75.670799 
	C159.177170,76.004250 156.472565,76.011055 153.305527,76.033112 
	C152.026489,75.548149 151.994476,74.699295 151.847870,73.580276 
	C153.890350,70.930847 156.644821,72.436440 159.485443,71.997696 
	C160.567581,73.112091 161.221603,74.228127 161.878693,75.670799 
z"/>
<path fill="#A8D2D2" opacity="1.000000" stroke="none" 
	d="
M117.987411,97.393631 
	C119.727020,96.040932 121.513840,95.531525 123.720253,96.884674 
	C123.223007,99.500160 122.394379,101.971329 121.338669,105.119705 
	C119.543953,102.522255 118.598824,100.235779 117.987411,97.393631 
z"/>
<path fill="#CAACC5" opacity="1.000000" stroke="none" 
	d="
M131.017670,78.364624 
	C133.286316,77.422508 135.637283,76.374130 137.913086,78.883728 
	C133.715927,84.229324 133.258057,84.199661 131.017670,78.364624 
z"/>
<path fill="#8FE6D7" opacity="1.000000" stroke="none" 
	d="
M101.468102,125.501595 
	C101.455315,125.482933 101.480888,125.520256 101.468102,125.501595 
z"/>
<path fill="#FDF7FA" opacity="1.000000" stroke="none" 
	d="
M126.858391,56.633003 
	C126.603470,57.451675 126.353134,57.901093 126.021431,58.593437 
	C120.346382,62.734348 119.247124,62.686142 115.466599,58.168770 
	C115.178413,56.576355 115.134392,55.202950 115.074303,53.416740 
	C118.045547,49.550163 121.349998,48.544376 125.497040,51.879322 
	C126.528168,53.372028 127.050400,54.728146 126.858391,56.633003 
z"/>
</svg>