<?xml version="1.0" encoding="iso-8859-1"?>
<svg height="800px" width="800px" version="1.1" id="Layer_1" xmlns="http://www.w3.org/2000/svg" xmlns:xlink="http://www.w3.org/1999/xlink" 
	 viewBox="0 0 512 512" xml:space="preserve">
<path style="fill:#F4D853;" d="M255.516,386.965l-0.339-164.989c0-26.634-21.59-48.228-48.226-48.228
	c-26.633,0-48.226,21.593-48.223,48.228l-0.003,57.171l0,0v-113.67l83.151-83.151c18.831-18.832,18.831-49.368,0-68.202
	c-18.832-18.831-49.367-18.832-68.204,0.002L62.276,125.522l0.003,0.005h-0.003v250.068l-34.103,34.101L130.478,512L255.516,386.965
	z"/>
<path style="fill:#E9A440;" d="M256.486,386.965l0.336-164.989c0-26.634,21.593-48.226,48.226-48.226
	c26.633-0.002,48.226,21.592,48.223,48.226l0.003,57.168l0,0V165.476l-83.151-83.15c-18.831-18.832-18.831-49.368,0-68.202
	c18.837-18.832,49.37-18.832,68.205,0.001l111.398,111.398l-0.006,0.005h0.006v250.067l34.099,34.101L381.522,512L256.486,386.965z"
	/>
</svg>