<svg version="1.1" id="Layer_1" xmlns="http://www.w3.org/2000/svg" xmlns:xlink="http://www.w3.org/1999/xlink" x="0px" y="0px"
	 width="100%" viewBox="0 0 204 189" enable-background="new 0 0 204 189" xml:space="preserve">
<path fill="none" opacity="1.000000" stroke="#000000" stroke-linecap="round" stroke-linejoin="round" stroke-width="2.000000"
	d="
M119.500000,117.500000 
	C114.697815,113.187210 114.405968,107.282310 114.049728,101.496941 
	C113.794136,97.346016 113.996651,93.166656 114.001648,89.000000 
	C114.003654,87.327324 114.349159,85.376373 111.993958,85.042656 
	C110.353119,84.810165 108.922226,85.090630 107.923767,86.959267 
	C106.800926,89.060661 105.851913,90.986298 105.941910,93.502075 
	C106.132469,98.828598 106.336021,104.193245 105.916771,109.493416 
	C105.366066,116.455254 107.220734,123.143890 107.629486,129.992279 
	C108.096626,137.819016 112.646233,143.622406 119.005928,147.991379 
	C122.472748,150.373001 125.813927,154.163956 129.546249,154.627808 
	C134.408127,155.232010 136.328979,149.114304 140.014771,146.520996 
	C142.442795,144.812637 144.392273,142.780640 145.676407,140.145981 
	C144.804916,136.695084 141.715500,135.244110 139.417526,134.177704 
	C130.340836,129.965500 128.549713,122.125801 128.034500,113.497940 
	C127.686813,107.675415 127.792793,101.826073 127.457375,96.002457 
	C127.218460,91.854454 126.230988,87.880707 124.571571,83.969635 
	C120.401024,74.140068 116.830124,64.089592 114.951912,53.508537 
	C114.634453,51.720127 114.870087,49.290997 112.001251,48.988129 
	C109.347275,48.707947 109.139336,51.041061 107.958565,52.465652 
	C104.162483,57.045582 105.448265,62.813385 105.923264,67.456703 
	C106.551170,73.594658 107.188751,79.830345 108.000000,86.000000 
"/>
<path fill="none" opacity="1.000000" stroke="#000000" stroke-linecap="round" stroke-linejoin="round" stroke-width="2.000000"
	d="
M105.000000,54.500000 
	C104.666664,53.666668 104.427658,52.778271 103.980103,52.011616 
	C103.084763,50.477882 102.221275,48.892624 99.999260,48.981480 
	C97.266792,49.090744 97.327477,51.463818 97.081528,53.012943 
	C95.283043,64.341072 91.089027,74.923340 86.909378,85.464066 
	C83.857758,93.160004 84.230606,101.058929 83.968246,108.998947 
	C83.757416,115.379562 83.688919,121.644196 80.183014,127.607590 
	C77.743507,131.757095 73.709923,133.255753 70.423187,135.904694 
	C65.370773,139.976715 65.077660,140.126389 69.511177,144.488632 
	C72.619972,147.547470 75.780685,150.558853 79.030472,153.465927 
	C80.073692,154.399155 81.187218,155.748337 83.010780,154.515961 
	C90.320801,149.575684 98.539421,145.759781 102.560616,137.027908 
	C104.665344,132.457565 104.447182,127.757332 104.521996,123.000343 
	C104.535141,122.164886 104.071190,121.180908 105.000000,120.500000 
"/>
<path fill="none" opacity="1.000000" stroke="#000000" stroke-linecap="round" stroke-linejoin="round" stroke-width="3.000000"
	d="
M103.500000,86.000000 
	C98.301559,84.254906 98.219810,84.398926 97.968056,89.498421 
	C97.604904,96.854156 99.214767,104.342896 96.096786,111.541924 
	C95.137604,113.756561 94.369263,115.909843 92.500000,117.500000 
"/>
<path fill="none" opacity="1.000000" stroke="#000000" stroke-linecap="round" stroke-linejoin="round" stroke-width="2.000000"
	d="
M105.000000,72.500000 
	C104.236794,77.833336 104.201378,83.166664 105.000000,88.500000 
"/>
<path fill="none" opacity="1.000000" stroke="#000000" stroke-linecap="round" stroke-linejoin="round" stroke-width="2.000000"
	d="
M146.500000,147.500000 
	C143.666672,150.000000 140.833328,152.500000 138.000000,155.000000 
"/>
</svg>